<mxfile host="app.diagrams.net" modified="2022-05-30T09:47:23.321Z" agent="5.0 (Windows)" etag="-pY2Iq7B1oN6NoGBh9Dn" version="18.1.3" type="github">
  <diagram id="_RTGqNRerQuPFqIfmM1y" name="Page-1">
    <mxGraphModel dx="1422" dy="752" grid="1" gridSize="10" guides="1" tooltips="1" connect="1" arrows="1" fold="1" page="1" pageScale="1" pageWidth="827" pageHeight="1169" math="0" shadow="0">
      <root>
        <mxCell id="0" />
        <mxCell id="1" parent="0" />
        <mxCell id="YVTOUBuaeelvvUNHEdQm-3" value="" style="rounded=0;whiteSpace=wrap;html=1;" vertex="1" parent="1">
          <mxGeometry x="500" y="150" width="120" height="60" as="geometry" />
        </mxCell>
        <mxCell id="YVTOUBuaeelvvUNHEdQm-4" value="Kisat" style="text;html=1;strokeColor=none;fillColor=none;align=center;verticalAlign=middle;whiteSpace=wrap;rounded=0;" vertex="1" parent="1">
          <mxGeometry x="530" y="165" width="60" height="30" as="geometry" />
        </mxCell>
        <mxCell id="YVTOUBuaeelvvUNHEdQm-5" value="" style="rounded=0;whiteSpace=wrap;html=1;" vertex="1" parent="1">
          <mxGeometry x="210" y="150" width="120" height="60" as="geometry" />
        </mxCell>
        <mxCell id="YVTOUBuaeelvvUNHEdQm-6" value="Pelaajat" style="text;html=1;strokeColor=none;fillColor=none;align=center;verticalAlign=middle;whiteSpace=wrap;rounded=0;" vertex="1" parent="1">
          <mxGeometry x="240" y="162.5" width="60" height="35" as="geometry" />
        </mxCell>
        <mxCell id="YVTOUBuaeelvvUNHEdQm-7" value="" style="ellipse;whiteSpace=wrap;html=1;" vertex="1" parent="1">
          <mxGeometry x="100" y="10" width="120" height="60" as="geometry" />
        </mxCell>
        <mxCell id="YVTOUBuaeelvvUNHEdQm-8" value="pelaajaID" style="text;html=1;strokeColor=none;fillColor=none;align=center;verticalAlign=middle;whiteSpace=wrap;rounded=0;" vertex="1" parent="1">
          <mxGeometry x="130" y="25" width="60" height="30" as="geometry" />
        </mxCell>
        <mxCell id="YVTOUBuaeelvvUNHEdQm-9" value="" style="ellipse;whiteSpace=wrap;html=1;" vertex="1" parent="1">
          <mxGeometry x="60" y="112.5" width="120" height="60" as="geometry" />
        </mxCell>
        <mxCell id="YVTOUBuaeelvvUNHEdQm-10" value="Etunimi" style="text;html=1;strokeColor=none;fillColor=none;align=center;verticalAlign=middle;whiteSpace=wrap;rounded=0;" vertex="1" parent="1">
          <mxGeometry x="90" y="127.5" width="60" height="30" as="geometry" />
        </mxCell>
        <mxCell id="YVTOUBuaeelvvUNHEdQm-11" value="" style="ellipse;whiteSpace=wrap;html=1;" vertex="1" parent="1">
          <mxGeometry x="70" y="192.5" width="120" height="60" as="geometry" />
        </mxCell>
        <mxCell id="YVTOUBuaeelvvUNHEdQm-12" value="Sukunimi" style="text;html=1;strokeColor=none;fillColor=none;align=center;verticalAlign=middle;whiteSpace=wrap;rounded=0;" vertex="1" parent="1">
          <mxGeometry x="100" y="207.5" width="60" height="25" as="geometry" />
        </mxCell>
        <mxCell id="YVTOUBuaeelvvUNHEdQm-13" value="" style="ellipse;whiteSpace=wrap;html=1;" vertex="1" parent="1">
          <mxGeometry x="670" y="112.5" width="120" height="60" as="geometry" />
        </mxCell>
        <mxCell id="YVTOUBuaeelvvUNHEdQm-14" value="kisaID" style="text;html=1;strokeColor=none;fillColor=none;align=center;verticalAlign=middle;whiteSpace=wrap;rounded=0;" vertex="1" parent="1">
          <mxGeometry x="700" y="127.5" width="60" height="30" as="geometry" />
        </mxCell>
        <mxCell id="YVTOUBuaeelvvUNHEdQm-15" value="" style="rounded=0;whiteSpace=wrap;html=1;" vertex="1" parent="1">
          <mxGeometry x="500" y="347.5" width="120" height="60" as="geometry" />
        </mxCell>
        <mxCell id="YVTOUBuaeelvvUNHEdQm-16" value="Ottelut" style="text;html=1;strokeColor=none;fillColor=none;align=center;verticalAlign=middle;whiteSpace=wrap;rounded=0;" vertex="1" parent="1">
          <mxGeometry x="530" y="362.5" width="60" height="30" as="geometry" />
        </mxCell>
        <mxCell id="YVTOUBuaeelvvUNHEdQm-17" value="" style="ellipse;whiteSpace=wrap;html=1;" vertex="1" parent="1">
          <mxGeometry x="670" y="292.5" width="120" height="60" as="geometry" />
        </mxCell>
        <mxCell id="YVTOUBuaeelvvUNHEdQm-18" value="joukkue1" style="text;html=1;strokeColor=none;fillColor=none;align=center;verticalAlign=middle;whiteSpace=wrap;rounded=0;" vertex="1" parent="1">
          <mxGeometry x="700" y="307.5" width="60" height="30" as="geometry" />
        </mxCell>
        <mxCell id="YVTOUBuaeelvvUNHEdQm-19" value="" style="ellipse;whiteSpace=wrap;html=1;" vertex="1" parent="1">
          <mxGeometry x="250" y="10" width="120" height="60" as="geometry" />
        </mxCell>
        <mxCell id="YVTOUBuaeelvvUNHEdQm-20" value="pisteet" style="text;html=1;strokeColor=none;fillColor=none;align=center;verticalAlign=middle;whiteSpace=wrap;rounded=0;" vertex="1" parent="1">
          <mxGeometry x="280" y="25" width="60" height="30" as="geometry" />
        </mxCell>
        <mxCell id="YVTOUBuaeelvvUNHEdQm-21" value="" style="ellipse;whiteSpace=wrap;html=1;" vertex="1" parent="1">
          <mxGeometry x="670" y="377.5" width="120" height="60" as="geometry" />
        </mxCell>
        <mxCell id="YVTOUBuaeelvvUNHEdQm-22" value="tulos" style="text;html=1;strokeColor=none;fillColor=none;align=center;verticalAlign=middle;whiteSpace=wrap;rounded=0;" vertex="1" parent="1">
          <mxGeometry x="700" y="392.5" width="60" height="30" as="geometry" />
        </mxCell>
        <mxCell id="YVTOUBuaeelvvUNHEdQm-25" value="" style="ellipse;whiteSpace=wrap;html=1;" vertex="1" parent="1">
          <mxGeometry x="670" y="182.5" width="120" height="60" as="geometry" />
        </mxCell>
        <mxCell id="YVTOUBuaeelvvUNHEdQm-26" value="Kisannimi" style="text;html=1;strokeColor=none;fillColor=none;align=center;verticalAlign=middle;whiteSpace=wrap;rounded=0;" vertex="1" parent="1">
          <mxGeometry x="700" y="197.5" width="60" height="30" as="geometry" />
        </mxCell>
        <mxCell id="YVTOUBuaeelvvUNHEdQm-27" value="" style="ellipse;whiteSpace=wrap;html=1;" vertex="1" parent="1">
          <mxGeometry x="680" y="447.5" width="120" height="60" as="geometry" />
        </mxCell>
        <mxCell id="YVTOUBuaeelvvUNHEdQm-28" value="OtteluID" style="text;html=1;strokeColor=none;fillColor=none;align=center;verticalAlign=middle;whiteSpace=wrap;rounded=0;" vertex="1" parent="1">
          <mxGeometry x="710" y="462.5" width="60" height="30" as="geometry" />
        </mxCell>
        <mxCell id="YVTOUBuaeelvvUNHEdQm-29" value="" style="ellipse;whiteSpace=wrap;html=1;" vertex="1" parent="1">
          <mxGeometry x="570" y="482.5" width="120" height="60" as="geometry" />
        </mxCell>
        <mxCell id="YVTOUBuaeelvvUNHEdQm-30" value="Joukkue2" style="text;html=1;strokeColor=none;fillColor=none;align=center;verticalAlign=middle;whiteSpace=wrap;rounded=0;" vertex="1" parent="1">
          <mxGeometry x="600" y="497.5" width="60" height="30" as="geometry" />
        </mxCell>
        <mxCell id="YVTOUBuaeelvvUNHEdQm-31" value="" style="endArrow=none;html=1;rounded=0;entryX=0.5;entryY=1;entryDx=0;entryDy=0;exitX=0.5;exitY=0;exitDx=0;exitDy=0;" edge="1" parent="1" source="YVTOUBuaeelvvUNHEdQm-5" target="YVTOUBuaeelvvUNHEdQm-19">
          <mxGeometry width="50" height="50" relative="1" as="geometry">
            <mxPoint x="390" y="230" as="sourcePoint" />
            <mxPoint x="440" y="180" as="targetPoint" />
          </mxGeometry>
        </mxCell>
        <mxCell id="YVTOUBuaeelvvUNHEdQm-32" value="" style="endArrow=none;html=1;rounded=0;exitX=0.5;exitY=0;exitDx=0;exitDy=0;entryX=1;entryY=1;entryDx=0;entryDy=0;" edge="1" parent="1" source="YVTOUBuaeelvvUNHEdQm-5" target="YVTOUBuaeelvvUNHEdQm-7">
          <mxGeometry width="50" height="50" relative="1" as="geometry">
            <mxPoint x="390" y="230" as="sourcePoint" />
            <mxPoint x="440" y="180" as="targetPoint" />
          </mxGeometry>
        </mxCell>
        <mxCell id="YVTOUBuaeelvvUNHEdQm-33" value="" style="endArrow=none;html=1;rounded=0;entryX=1;entryY=0.5;entryDx=0;entryDy=0;exitX=0;exitY=0.5;exitDx=0;exitDy=0;" edge="1" parent="1" source="YVTOUBuaeelvvUNHEdQm-5" target="YVTOUBuaeelvvUNHEdQm-9">
          <mxGeometry width="50" height="50" relative="1" as="geometry">
            <mxPoint x="390" y="230" as="sourcePoint" />
            <mxPoint x="440" y="180" as="targetPoint" />
          </mxGeometry>
        </mxCell>
        <mxCell id="YVTOUBuaeelvvUNHEdQm-34" value="" style="endArrow=none;html=1;rounded=0;exitX=1;exitY=0.5;exitDx=0;exitDy=0;entryX=0;entryY=0.5;entryDx=0;entryDy=0;" edge="1" parent="1" source="YVTOUBuaeelvvUNHEdQm-11" target="YVTOUBuaeelvvUNHEdQm-5">
          <mxGeometry width="50" height="50" relative="1" as="geometry">
            <mxPoint x="390" y="202.5" as="sourcePoint" />
            <mxPoint x="190" y="180" as="targetPoint" />
          </mxGeometry>
        </mxCell>
        <mxCell id="YVTOUBuaeelvvUNHEdQm-36" value="" style="endArrow=none;html=1;rounded=0;entryX=0;entryY=0.5;entryDx=0;entryDy=0;exitX=1;exitY=0.5;exitDx=0;exitDy=0;" edge="1" parent="1" source="YVTOUBuaeelvvUNHEdQm-3" target="YVTOUBuaeelvvUNHEdQm-13">
          <mxGeometry width="50" height="50" relative="1" as="geometry">
            <mxPoint x="390" y="290" as="sourcePoint" />
            <mxPoint x="440" y="240" as="targetPoint" />
          </mxGeometry>
        </mxCell>
        <mxCell id="YVTOUBuaeelvvUNHEdQm-37" value="" style="endArrow=none;html=1;rounded=0;entryX=0;entryY=0.5;entryDx=0;entryDy=0;exitX=1;exitY=0.5;exitDx=0;exitDy=0;" edge="1" parent="1" source="YVTOUBuaeelvvUNHEdQm-3" target="YVTOUBuaeelvvUNHEdQm-25">
          <mxGeometry width="50" height="50" relative="1" as="geometry">
            <mxPoint x="390" y="290" as="sourcePoint" />
            <mxPoint x="440" y="240" as="targetPoint" />
          </mxGeometry>
        </mxCell>
        <mxCell id="YVTOUBuaeelvvUNHEdQm-38" value="" style="endArrow=none;html=1;rounded=0;entryX=0;entryY=0.5;entryDx=0;entryDy=0;exitX=1;exitY=0.5;exitDx=0;exitDy=0;" edge="1" parent="1" source="YVTOUBuaeelvvUNHEdQm-15" target="YVTOUBuaeelvvUNHEdQm-17">
          <mxGeometry width="50" height="50" relative="1" as="geometry">
            <mxPoint x="390" y="317.5" as="sourcePoint" />
            <mxPoint x="673.96" y="345.48" as="targetPoint" />
          </mxGeometry>
        </mxCell>
        <mxCell id="YVTOUBuaeelvvUNHEdQm-39" value="" style="endArrow=none;html=1;rounded=0;entryX=0;entryY=0.5;entryDx=0;entryDy=0;" edge="1" parent="1" target="YVTOUBuaeelvvUNHEdQm-21">
          <mxGeometry width="50" height="50" relative="1" as="geometry">
            <mxPoint x="620" y="377.5" as="sourcePoint" />
            <mxPoint x="440" y="267.5" as="targetPoint" />
          </mxGeometry>
        </mxCell>
        <mxCell id="YVTOUBuaeelvvUNHEdQm-40" value="" style="endArrow=none;html=1;rounded=0;entryX=0;entryY=0.5;entryDx=0;entryDy=0;exitX=0.5;exitY=1;exitDx=0;exitDy=0;" edge="1" parent="1" source="YVTOUBuaeelvvUNHEdQm-15" target="YVTOUBuaeelvvUNHEdQm-27">
          <mxGeometry width="50" height="50" relative="1" as="geometry">
            <mxPoint x="390" y="317.5" as="sourcePoint" />
            <mxPoint x="440" y="267.5" as="targetPoint" />
          </mxGeometry>
        </mxCell>
        <mxCell id="YVTOUBuaeelvvUNHEdQm-41" value="" style="endArrow=none;html=1;rounded=0;exitX=0.5;exitY=0;exitDx=0;exitDy=0;" edge="1" parent="1" source="YVTOUBuaeelvvUNHEdQm-29">
          <mxGeometry width="50" height="50" relative="1" as="geometry">
            <mxPoint x="530" y="457.5" as="sourcePoint" />
            <mxPoint x="560" y="407.5" as="targetPoint" />
          </mxGeometry>
        </mxCell>
        <mxCell id="YVTOUBuaeelvvUNHEdQm-43" value="" style="ellipse;whiteSpace=wrap;html=1;" vertex="1" parent="1">
          <mxGeometry x="440" y="482.5" width="120" height="60" as="geometry" />
        </mxCell>
        <mxCell id="YVTOUBuaeelvvUNHEdQm-44" value="joukkue1prosentti" style="text;html=1;strokeColor=none;fillColor=none;align=center;verticalAlign=middle;whiteSpace=wrap;rounded=0;" vertex="1" parent="1">
          <mxGeometry x="470" y="497.5" width="60" height="30" as="geometry" />
        </mxCell>
        <mxCell id="YVTOUBuaeelvvUNHEdQm-45" value="" style="ellipse;whiteSpace=wrap;html=1;" vertex="1" parent="1">
          <mxGeometry x="400" y="412.5" width="120" height="60" as="geometry" />
        </mxCell>
        <mxCell id="YVTOUBuaeelvvUNHEdQm-46" value="Joukkue2prosentti" style="text;html=1;strokeColor=none;fillColor=none;align=center;verticalAlign=middle;whiteSpace=wrap;rounded=0;" vertex="1" parent="1">
          <mxGeometry x="430" y="427.5" width="60" height="30" as="geometry" />
        </mxCell>
        <mxCell id="YVTOUBuaeelvvUNHEdQm-47" value="" style="endArrow=none;html=1;rounded=0;exitX=1;exitY=0;exitDx=0;exitDy=0;" edge="1" parent="1" source="YVTOUBuaeelvvUNHEdQm-43">
          <mxGeometry width="50" height="50" relative="1" as="geometry">
            <mxPoint x="390" y="317.5" as="sourcePoint" />
            <mxPoint x="560" y="407.5" as="targetPoint" />
          </mxGeometry>
        </mxCell>
        <mxCell id="YVTOUBuaeelvvUNHEdQm-48" value="" style="endArrow=none;html=1;rounded=0;entryX=0.5;entryY=1;entryDx=0;entryDy=0;exitX=1;exitY=0.5;exitDx=0;exitDy=0;" edge="1" parent="1" source="YVTOUBuaeelvvUNHEdQm-45" target="YVTOUBuaeelvvUNHEdQm-15">
          <mxGeometry width="50" height="50" relative="1" as="geometry">
            <mxPoint x="390" y="317.5" as="sourcePoint" />
            <mxPoint x="440" y="267.5" as="targetPoint" />
          </mxGeometry>
        </mxCell>
        <mxCell id="YVTOUBuaeelvvUNHEdQm-49" value="" style="ellipse;whiteSpace=wrap;html=1;" vertex="1" parent="1">
          <mxGeometry x="350" y="352.5" width="120" height="60" as="geometry" />
        </mxCell>
        <mxCell id="YVTOUBuaeelvvUNHEdQm-50" value="tasan_prosentti" style="text;html=1;strokeColor=none;fillColor=none;align=center;verticalAlign=middle;whiteSpace=wrap;rounded=0;" vertex="1" parent="1">
          <mxGeometry x="380" y="367.5" width="60" height="30" as="geometry" />
        </mxCell>
        <mxCell id="YVTOUBuaeelvvUNHEdQm-51" value="" style="endArrow=none;html=1;rounded=0;entryX=0;entryY=0.5;entryDx=0;entryDy=0;exitX=1;exitY=0.5;exitDx=0;exitDy=0;" edge="1" parent="1" source="YVTOUBuaeelvvUNHEdQm-49" target="YVTOUBuaeelvvUNHEdQm-15">
          <mxGeometry width="50" height="50" relative="1" as="geometry">
            <mxPoint x="390" y="317.5" as="sourcePoint" />
            <mxPoint x="440" y="267.5" as="targetPoint" />
          </mxGeometry>
        </mxCell>
        <mxCell id="YVTOUBuaeelvvUNHEdQm-52" value="" style="rhombus;whiteSpace=wrap;html=1;" vertex="1" parent="1">
          <mxGeometry x="350" y="140" width="130" height="80" as="geometry" />
        </mxCell>
        <mxCell id="YVTOUBuaeelvvUNHEdQm-53" value="Veikkaus" style="text;html=1;strokeColor=none;fillColor=none;align=center;verticalAlign=middle;whiteSpace=wrap;rounded=0;" vertex="1" parent="1">
          <mxGeometry x="380" y="165" width="60" height="30" as="geometry" />
        </mxCell>
        <mxCell id="YVTOUBuaeelvvUNHEdQm-54" value="" style="rhombus;whiteSpace=wrap;html=1;" vertex="1" parent="1">
          <mxGeometry x="495" y="240" width="130" height="80" as="geometry" />
        </mxCell>
        <mxCell id="YVTOUBuaeelvvUNHEdQm-55" value="Kuluu" style="text;html=1;strokeColor=none;fillColor=none;align=center;verticalAlign=middle;whiteSpace=wrap;rounded=0;" vertex="1" parent="1">
          <mxGeometry x="530" y="267.5" width="60" height="30" as="geometry" />
        </mxCell>
        <mxCell id="YVTOUBuaeelvvUNHEdQm-56" value="" style="endArrow=none;html=1;rounded=0;entryX=0;entryY=0.5;entryDx=0;entryDy=0;exitX=1;exitY=0.5;exitDx=0;exitDy=0;" edge="1" parent="1" source="YVTOUBuaeelvvUNHEdQm-5" target="YVTOUBuaeelvvUNHEdQm-52">
          <mxGeometry width="50" height="50" relative="1" as="geometry">
            <mxPoint x="390" y="230" as="sourcePoint" />
            <mxPoint x="440" y="180" as="targetPoint" />
          </mxGeometry>
        </mxCell>
        <mxCell id="YVTOUBuaeelvvUNHEdQm-57" value="" style="endArrow=none;html=1;rounded=0;entryX=0;entryY=0.5;entryDx=0;entryDy=0;exitX=1;exitY=0.5;exitDx=0;exitDy=0;" edge="1" parent="1" source="YVTOUBuaeelvvUNHEdQm-52" target="YVTOUBuaeelvvUNHEdQm-3">
          <mxGeometry width="50" height="50" relative="1" as="geometry">
            <mxPoint x="480" y="198" as="sourcePoint" />
            <mxPoint x="440" y="240" as="targetPoint" />
          </mxGeometry>
        </mxCell>
        <mxCell id="YVTOUBuaeelvvUNHEdQm-58" value="" style="endArrow=none;html=1;rounded=0;entryX=0.5;entryY=1;entryDx=0;entryDy=0;exitX=0.5;exitY=0;exitDx=0;exitDy=0;" edge="1" parent="1" source="YVTOUBuaeelvvUNHEdQm-54" target="YVTOUBuaeelvvUNHEdQm-3">
          <mxGeometry width="50" height="50" relative="1" as="geometry">
            <mxPoint x="400" y="250" as="sourcePoint" />
            <mxPoint x="450" y="200" as="targetPoint" />
          </mxGeometry>
        </mxCell>
        <mxCell id="YVTOUBuaeelvvUNHEdQm-59" value="" style="endArrow=none;html=1;rounded=0;entryX=0.5;entryY=1;entryDx=0;entryDy=0;exitX=0.5;exitY=0;exitDx=0;exitDy=0;" edge="1" parent="1" source="YVTOUBuaeelvvUNHEdQm-15" target="YVTOUBuaeelvvUNHEdQm-54">
          <mxGeometry width="50" height="50" relative="1" as="geometry">
            <mxPoint x="430" y="337.5" as="sourcePoint" />
            <mxPoint x="555" y="340" as="targetPoint" />
          </mxGeometry>
        </mxCell>
        <mxCell id="YVTOUBuaeelvvUNHEdQm-60" value="M" style="text;html=1;strokeColor=none;fillColor=none;align=center;verticalAlign=middle;whiteSpace=wrap;rounded=0;" vertex="1" parent="1">
          <mxGeometry x="460" y="172.5" width="60" height="30" as="geometry" />
        </mxCell>
        <mxCell id="YVTOUBuaeelvvUNHEdQm-62" value="M" style="text;html=1;strokeColor=none;fillColor=none;align=center;verticalAlign=middle;whiteSpace=wrap;rounded=0;" vertex="1" parent="1">
          <mxGeometry x="310" y="180" width="60" height="30" as="geometry" />
        </mxCell>
        <mxCell id="YVTOUBuaeelvvUNHEdQm-64" value="M" style="text;html=1;strokeColor=none;fillColor=none;align=center;verticalAlign=middle;whiteSpace=wrap;rounded=0;" vertex="1" parent="1">
          <mxGeometry x="510" y="210" width="60" height="30" as="geometry" />
        </mxCell>
        <mxCell id="YVTOUBuaeelvvUNHEdQm-65" value="M" style="text;html=1;strokeColor=none;fillColor=none;align=center;verticalAlign=middle;whiteSpace=wrap;rounded=0;" vertex="1" parent="1">
          <mxGeometry x="520" y="322.5" width="60" height="30" as="geometry" />
        </mxCell>
      </root>
    </mxGraphModel>
  </diagram>
</mxfile>
